<?xml version="1.0" encoding="UTF-8"?>
<svg width="112px" height="113px" viewBox="0 0 112 113" version="1.1" xmlns="http://www.w3.org/2000/svg" xmlns:xlink="http://www.w3.org/1999/xlink">
    <g stroke="none" stroke-width="1" fill="none" fill-rule="evenodd">
        <g transform="translate(-225.000000, -264.000000)" fill="#FFFFFF" fill-rule="nonzero">
            <g transform="translate(222.000000, 262.000000)">
                <path d="M53,-12 L53,129.421356 C53,132.735065 55.6862915,135.421356 59,135.421356 C62.3137085,135.421356 65,132.735065 65,129.421356 L65,-12 C65,-15.3137085 62.3137085,-18 59,-18 C55.6862915,-18 53,-15.3137085 53,-12 Z" id="Line-2" fill-opacity="0.25" transform="translate(59.000000, 58.710678) rotate(-45.000000) translate(-59.000000, -58.710678) "></path>
                <path d="M53,59.0121813 L53.2016398,158.327509 C53.2083672,161.641211 55.9001068,164.322043 59.2138085,164.315328 C62.5275101,164.308588 65.2083425,161.616849 65.2016277,158.303147 L64.9999879,58.9878193 C64.9932605,55.6741176 62.3015209,52.9932853 58.9878193,53 C55.6741176,53.00674 52.9932853,55.6984796 53,59.0121813 Z" id="Line" transform="translate(59.100814, 108.657664) scale(-1, 1) rotate(-270.000000) translate(-59.100814, -108.657664) "></path>
                <path d="M53,-41 L53,58.1848725 C53,61.4985809 55.6862915,64.1848725 59,64.1848725 C62.3137085,64.1848725 65,61.4985809 65,58.1848725 L65,-41 C65,-44.3137085 62.3137085,-47 59,-47 C55.6862915,-47 53,-44.3137085 53,-41 Z" id="Line" transform="translate(59.000000, 8.592436) scale(-1, 1) rotate(-270.000000) translate(-59.000000, -8.592436) "></path>
                <path d="M59,90 C76.1208272,90 90,76.1208272 90,59 C90,41.8791728 76.1208272,28 59,28 C41.8791728,28 28,41.8791728 28,59 C28,76.1208272 41.8791728,90 59,90 Z M59,78 C48.5065898,78 40,69.4934102 40,59 C40,48.5065898 48.5065898,40 59,40 C69.4934102,40 78,48.5065898 78,59 C78,69.4934102 69.4934102,78 59,78 Z" id="Oval" transform="translate(59.000000, 59.000000) scale(-1, 1) rotate(-90.000000) translate(-59.000000, -59.000000) "></path>
            </g>
        </g>
    </g>
</svg>
